<mxfile host="65bd71144e">
    <diagram id="hVWNacycG0EmZBMDkKeU" name="Main">
        <mxGraphModel dx="180" dy="771" grid="1" gridSize="10" guides="1" tooltips="1" connect="1" arrows="1" fold="1" page="1" pageScale="1" pageWidth="850" pageHeight="1100" background="#FFFFFF" math="0" shadow="0">
            <root>
                <mxCell id="0"/>
                <mxCell id="1" parent="0"/>
                <mxCell id="77" value="Fluxo OAuth" style="shape=umlFrame;whiteSpace=wrap;html=1;width=150;height=30;boundedLbl=1;verticalAlign=middle;align=center;spacingLeft=5;rounded=0;sketch=0;fillColor=#f5f5f5;fontColor=#000000;strokeColor=#000000;" parent="1" vertex="1">
                    <mxGeometry x="880" y="40" width="670" height="300" as="geometry"/>
                </mxCell>
                <mxCell id="48" value="Our Controller" style="shape=umlFrame;whiteSpace=wrap;html=1;width=150;height=30;boundedLbl=1;verticalAlign=middle;align=center;spacingLeft=5;rounded=0;sketch=0;fillColor=#f5f5f5;fontColor=#000000;strokeColor=#000000;" parent="1" vertex="1">
                    <mxGeometry x="1130" y="60" width="200" height="250" as="geometry"/>
                </mxCell>
                <mxCell id="73" style="edgeStyle=orthogonalEdgeStyle;rounded=1;orthogonalLoop=1;jettySize=auto;html=1;entryX=0;entryY=0.25;entryDx=0;entryDy=0;fontColor=#000000;strokeColor=#000000;" parent="1" source="50" target="71" edge="1">
                    <mxGeometry relative="1" as="geometry"/>
                </mxCell>
                <mxCell id="50" value="auth/github" style="rounded=0;whiteSpace=wrap;html=1;fillColor=#f5f5f5;fontFamily=Verdana;fontColor=#000000;strokeColor=#000000;" parent="1" vertex="1">
                    <mxGeometry x="1170" y="110" width="120" height="60" as="geometry"/>
                </mxCell>
                <mxCell id="74" style="edgeStyle=orthogonalEdgeStyle;rounded=1;orthogonalLoop=1;jettySize=auto;html=1;exitX=0;exitY=0.75;exitDx=0;exitDy=0;fontColor=#000000;strokeColor=#000000;" parent="1" source="71" edge="1">
                    <mxGeometry relative="1" as="geometry">
                        <mxPoint x="1290" y="260" as="targetPoint"/>
                    </mxGeometry>
                </mxCell>
                <mxCell id="51" value="auth/github/callback" style="rounded=0;whiteSpace=wrap;html=1;fillColor=#f5f5f5;fontFamily=Verdana;fontColor=#000000;strokeColor=#000000;" parent="1" vertex="1">
                    <mxGeometry x="1170" y="230" width="120" height="60" as="geometry"/>
                </mxCell>
                <mxCell id="71" value="GitHub" style="rounded=0;whiteSpace=wrap;html=1;fillColor=#f5f5f5;fontFamily=Verdana;fontColor=#000000;strokeColor=#000000;" parent="1" vertex="1">
                    <mxGeometry x="1410" y="80" width="120" height="240" as="geometry"/>
                </mxCell>
                <mxCell id="76" style="edgeStyle=orthogonalEdgeStyle;rounded=1;orthogonalLoop=1;jettySize=auto;html=1;fontColor=#000000;strokeColor=#000000;" parent="1" source="75" target="50" edge="1">
                    <mxGeometry relative="1" as="geometry"/>
                </mxCell>
                <mxCell id="75" value="Login with GitHub" style="rounded=0;whiteSpace=wrap;html=1;fillColor=#f5f5f5;fontFamily=Verdana;fontColor=#000000;strokeColor=#000000;" parent="1" vertex="1">
                    <mxGeometry x="900" y="110" width="120" height="60" as="geometry"/>
                </mxCell>
            </root>
        </mxGraphModel>
    </diagram>
    <diagram name="Cookies" id="7iu1BvAONqdBaQuBJ00M">
        <mxGraphModel dx="-261" dy="441" grid="1" gridSize="10" guides="1" tooltips="1" connect="1" arrows="1" fold="1" page="1" pageScale="1" pageWidth="850" pageHeight="1100" background="#FFFFFF" math="0" shadow="0">
            <root>
                <mxCell id="agrhyZftaLWqcVg64UHv-0"/>
                <mxCell id="agrhyZftaLWqcVg64UHv-1" parent="agrhyZftaLWqcVg64UHv-0"/>
                <mxCell id="agrhyZftaLWqcVg64UHv-2" value="Fluxo OAuth" style="shape=umlFrame;whiteSpace=wrap;html=1;width=150;height=30;boundedLbl=1;verticalAlign=middle;align=center;spacingLeft=5;rounded=0;sketch=0;fillColor=#f5f5f5;strokeColor=#000000;fontColor=#000000;" vertex="1" parent="agrhyZftaLWqcVg64UHv-1">
                    <mxGeometry x="880" y="40" width="310" height="730" as="geometry"/>
                </mxCell>
                <mxCell id="EnZKepEVJbwzhF4N6LqM-8" value="" style="edgeStyle=orthogonalEdgeStyle;curved=0;rounded=1;sketch=0;orthogonalLoop=1;jettySize=auto;html=1;labelBackgroundColor=none;fillColor=#f5f5f5;strokeColor=#000000;fontColor=#000000;" edge="1" parent="agrhyZftaLWqcVg64UHv-1" source="EnZKepEVJbwzhF4N6LqM-0" target="EnZKepEVJbwzhF4N6LqM-1">
                    <mxGeometry relative="1" as="geometry"/>
                </mxCell>
                <mxCell id="EnZKepEVJbwzhF4N6LqM-0" value="User Oauths with Github" style="rounded=0;whiteSpace=wrap;html=1;fontFamily=Verdana;fillColor=#f5f5f5;strokeColor=#000000;fontColor=#000000;" vertex="1" parent="agrhyZftaLWqcVg64UHv-1">
                    <mxGeometry x="955" y="80" width="160" height="60" as="geometry"/>
                </mxCell>
                <mxCell id="EnZKepEVJbwzhF4N6LqM-9" value="" style="edgeStyle=orthogonalEdgeStyle;curved=0;rounded=1;sketch=0;orthogonalLoop=1;jettySize=auto;html=1;labelBackgroundColor=none;fillColor=#f5f5f5;strokeColor=#000000;fontColor=#000000;" edge="1" parent="agrhyZftaLWqcVg64UHv-1" source="EnZKepEVJbwzhF4N6LqM-1" target="EnZKepEVJbwzhF4N6LqM-2">
                    <mxGeometry relative="1" as="geometry"/>
                </mxCell>
                <mxCell id="EnZKepEVJbwzhF4N6LqM-1" value="We insert record into DB" style="rounded=0;whiteSpace=wrap;html=1;fillColor=#f5f5f5;fontFamily=Verdana;strokeColor=#000000;fontColor=#000000;" vertex="1" parent="agrhyZftaLWqcVg64UHv-1">
                    <mxGeometry x="955" y="180" width="160" height="60" as="geometry"/>
                </mxCell>
                <mxCell id="EnZKepEVJbwzhF4N6LqM-10" value="" style="edgeStyle=orthogonalEdgeStyle;curved=0;rounded=1;sketch=0;orthogonalLoop=1;jettySize=auto;html=1;labelBackgroundColor=none;fillColor=#f5f5f5;strokeColor=#000000;fontColor=#000000;" edge="1" parent="agrhyZftaLWqcVg64UHv-1" source="EnZKepEVJbwzhF4N6LqM-2" target="EnZKepEVJbwzhF4N6LqM-3">
                    <mxGeometry relative="1" as="geometry"/>
                </mxCell>
                <mxCell id="EnZKepEVJbwzhF4N6LqM-2" value="Databse record gets an ID" style="rounded=0;whiteSpace=wrap;html=1;fillColor=#f5f5f5;fontFamily=Verdana;strokeColor=#000000;fontColor=#000000;" vertex="1" parent="agrhyZftaLWqcVg64UHv-1">
                    <mxGeometry x="955" y="280" width="160" height="60" as="geometry"/>
                </mxCell>
                <mxCell id="EnZKepEVJbwzhF4N6LqM-11" value="" style="edgeStyle=orthogonalEdgeStyle;curved=0;rounded=1;sketch=0;orthogonalLoop=1;jettySize=auto;html=1;labelBackgroundColor=none;fillColor=#f5f5f5;entryX=0.5;entryY=0;entryDx=0;entryDy=0;strokeColor=#000000;fontColor=#000000;" edge="1" parent="agrhyZftaLWqcVg64UHv-1" source="EnZKepEVJbwzhF4N6LqM-3" target="EnZKepEVJbwzhF4N6LqM-4">
                    <mxGeometry relative="1" as="geometry"/>
                </mxCell>
                <mxCell id="EnZKepEVJbwzhF4N6LqM-3" value="Put ID on user's cookie" style="rounded=0;whiteSpace=wrap;html=1;fillColor=#f5f5f5;fontFamily=Verdana;strokeColor=#000000;fontColor=#000000;" vertex="1" parent="agrhyZftaLWqcVg64UHv-1">
                    <mxGeometry x="955" y="380" width="160" height="60" as="geometry"/>
                </mxCell>
                <mxCell id="EnZKepEVJbwzhF4N6LqM-7" value="Follow Request" style="edgeStyle=orthogonalEdgeStyle;curved=0;rounded=1;sketch=0;orthogonalLoop=1;jettySize=auto;html=1;fillColor=#f5f5f5;labelBackgroundColor=none;strokeColor=#000000;fontColor=#000000;fontFamily=Verdana;" edge="1" parent="agrhyZftaLWqcVg64UHv-1" source="EnZKepEVJbwzhF4N6LqM-4" target="EnZKepEVJbwzhF4N6LqM-6">
                    <mxGeometry y="45" relative="1" as="geometry">
                        <mxPoint as="offset"/>
                    </mxGeometry>
                </mxCell>
                <mxCell id="EnZKepEVJbwzhF4N6LqM-4" value="Cookies for Discuss.com" style="rounded=0;whiteSpace=wrap;html=1;fillColor=#f5f5f5;fontFamily=Verdana;verticalAlign=top;strokeColor=#000000;fontColor=#000000;" vertex="1" parent="agrhyZftaLWqcVg64UHv-1">
                    <mxGeometry x="900" y="480" width="270" height="170" as="geometry"/>
                </mxCell>
                <mxCell id="EnZKepEVJbwzhF4N6LqM-5" value="%{ user_id: 4 }" style="rounded=0;whiteSpace=wrap;html=1;fillColor=#f5f5f5;fontFamily=Verdana;strokeColor=#000000;fontColor=#000000;" vertex="1" parent="agrhyZftaLWqcVg64UHv-1">
                    <mxGeometry x="955" y="535" width="160" height="60" as="geometry"/>
                </mxCell>
                <mxCell id="EnZKepEVJbwzhF4N6LqM-6" value="Discuss.com" style="rounded=0;whiteSpace=wrap;html=1;fillColor=#f5f5f5;fontFamily=Verdana;strokeColor=#000000;fontColor=#000000;" vertex="1" parent="agrhyZftaLWqcVg64UHv-1">
                    <mxGeometry x="955" y="690" width="160" height="60" as="geometry"/>
                </mxCell>
            </root>
        </mxGraphModel>
    </diagram>
</mxfile>